<svg width="128" height="128" viewBox="0 0 128 128" fill="none" xmlns="http://www.w3.org/2000/svg">
<rect width="128" height="128" fill="#1966FF"/>
<path d="M42.6975 35.5482C45.1061 33.1396 46.3104 31.9353 47.8418 31.301C49.3732 30.6667 51.0763 30.6667 54.4826 30.6667H73.6916C77.1322 30.6667 78.8526 30.6667 80.3963 31.3127C81.94 31.9588 83.1475 33.1841 85.5626 35.6348L92.5377 42.7127C94.9045 45.1144 96.0879 46.3152 96.7106 47.8343C97.3333 49.3534 97.3333 51.0394 97.3333 54.4113V73.7631C97.3333 77.1694 97.3333 78.8725 96.699 80.4039C96.0647 81.9353 94.8604 83.1396 92.4518 85.5482L85.5482 92.4518C83.1396 94.8604 81.9353 96.0647 80.4039 96.699C78.8725 97.3333 77.1694 97.3333 73.7631 97.3333H54.4113C51.0393 97.3333 49.3534 97.3333 47.8343 96.7106C46.3152 96.0879 45.1144 94.9045 42.7127 92.5377L35.6348 85.5626C33.1841 83.1475 31.9588 81.94 31.3127 80.3963C30.6667 78.8526 30.6667 77.1322 30.6667 73.6916V54.4826C30.6667 51.0763 30.6667 49.3732 31.301 47.8418C31.9353 46.3104 33.1396 45.1061 35.5482 42.6975L42.6975 35.5482Z" stroke="white" stroke-width="11.1111"/>
<path d="M47.3333 59.8333L49.0929 60.7131C58.4771 65.4052 69.5229 65.4052 78.9071 60.7131L80.6667 59.8333" stroke="white" stroke-width="7.77778" stroke-linecap="round"/>
<path d="M64 66.0833V72.3333" stroke="white" stroke-width="7.77778" stroke-linecap="round"/>
<path d="M51.5 64L49.4167 68.1667" stroke="white" stroke-width="7.77778" stroke-linecap="round"/>
<path d="M76.5 64L78.5833 68.1667" stroke="white" stroke-width="7.77778" stroke-linecap="round"/>
</svg>
